<svg xmlns="http://www.w3.org/2000/svg" viewBox="0 0 100 100" width="100" height="100">
  <rect width="100" height="100" fill="white"/>
  <!-- QR Code Pattern (fictício) -->
  <g fill="#000">
    <!-- Cantos de posicionamento -->
    <!-- Canto superior esquerdo -->
    <rect x="5" y="5" width="20" height="20"/>
    <rect x="8" y="8" width="14" height="14" fill="white"/>
    <rect x="11" y="11" width="8" height="8"/>
    
    <!-- Canto superior direito -->
    <rect x="75" y="5" width="20" height="20"/>
    <rect x="78" y="8" width="14" height="14" fill="white"/>
    <rect x="81" y="11" width="8" height="8"/>
    
    <!-- Canto inferior esquerdo -->
    <rect x="5" y="75" width="20" height="20"/>
    <rect x="8" y="78" width="14" height="14" fill="white"/>
    <rect x="11" y="81" width="8" height="8"/>
    
    <!-- Padrão de dados (simulado) -->
    <rect x="30" y="5" width="3" height="3"/>
    <rect x="36" y="5" width="3" height="3"/>
    <rect x="45" y="5" width="3" height="3"/>
    <rect x="51" y="5" width="3" height="3"/>
    <rect x="60" y="5" width="3" height="3"/>
    
    <rect x="30" y="11" width="3" height="3"/>
    <rect x="39" y="11" width="3" height="3"/>
    <rect x="48" y="11" width="3" height="3"/>
    <rect x="57" y="11" width="3" height="3"/>
    <rect x="66" y="11" width="3" height="3"/>
    
    <rect x="33" y="17" width="3" height="3"/>
    <rect x="42" y="17" width="3" height="3"/>
    <rect x="51" y="17" width="3" height="3"/>
    <rect x="63" y="17" width="3" height="3"/>
    
    <rect x="5" y="30" width="3" height="3"/>
    <rect x="11" y="30" width="3" height="3"/>
    <rect x="20" y="30" width="3" height="3"/>
    <rect x="30" y="30" width="3" height="3"/>
    <rect x="39" y="30" width="3" height="3"/>
    <rect x="48" y="30" width="3" height="3"/>
    <rect x="57" y="30" width="3" height="3"/>
    <rect x="66" y="30" width="3" height="3"/>
    <rect x="75" y="30" width="3" height="3"/>
    <rect x="84" y="30" width="3" height="3"/>
    <rect x="90" y="30" width="3" height="3"/>
    
    <rect x="5" y="36" width="3" height="3"/>
    <rect x="14" y="36" width="3" height="3"/>
    <rect x="23" y="36" width="3" height="3"/>
    <rect x="33" y="36" width="3" height="3"/>
    <rect x="42" y="36" width="3" height="3"/>
    <rect x="51" y="36" width="3" height="3"/>
    <rect x="60" y="36" width="3" height="3"/>
    <rect x="69" y="36" width="3" height="3"/>
    <rect x="78" y="36" width="3" height="3"/>
    <rect x="87" y="36" width="3" height="3"/>
    
    <rect x="8" y="42" width="3" height="3"/>
    <rect x="17" y="42" width="3" height="3"/>
    <rect x="26" y="42" width="3" height="3"/>
    <rect x="36" y="42" width="3" height="3"/>
    <rect x="45" y="42" width="3" height="3"/>
    <rect x="54" y="42" width="3" height="3"/>
    <rect x="63" y="42" width="3" height="3"/>
    <rect x="72" y="42" width="3" height="3"/>
    <rect x="81" y="42" width="3" height="3"/>
    <rect x="90" y="42" width="3" height="3"/>
    
    <rect x="5" y="48" width="3" height="3"/>
    <rect x="14" y="48" width="3" height="3"/>
    <rect x="23" y="48" width="3" height="3"/>
    <rect x="33" y="48" width="3" height="3"/>
    <rect x="42" y="48" width="3" height="3"/>
    <rect x="51" y="48" width="3" height="3"/>
    <rect x="60" y="48" width="3" height="3"/>
    <rect x="69" y="48" width="3" height="3"/>
    <rect x="78" y="48" width="3" height="3"/>
    <rect x="87" y="48" width="3" height="3"/>
    
    <rect x="8" y="54" width="3" height="3"/>
    <rect x="17" y="54" width="3" height="3"/>
    <rect x="26" y="54" width="3" height="3"/>
    <rect x="36" y="54" width="3" height="3"/>
    <rect x="45" y="54" width="3" height="3"/>
    <rect x="54" y="54" width="3" height="3"/>
    <rect x="63" y="54" width="3" height="3"/>
    <rect x="72" y="54" width="3" height="3"/>
    <rect x="81" y="54" width="3" height="3"/>
    <rect x="90" y="54" width="3" height="3"/>
    
    <rect x="5" y="60" width="3" height="3"/>
    <rect x="14" y="60" width="3" height="3"/>
    <rect x="23" y="60" width="3" height="3"/>
    <rect x="33" y="60" width="3" height="3"/>
    <rect x="42" y="60" width="3" height="3"/>
    <rect x="51" y="60" width="3" height="3"/>
    <rect x="60" y="60" width="3" height="3"/>
    <rect x="69" y="60" width="3" height="3"/>
    <rect x="78" y="60" width="3" height="3"/>
    <rect x="87" y="60" width="3" height="3"/>
    
    <rect x="30" y="66" width="3" height="3"/>
    <rect x="39" y="66" width="3" height="3"/>
    <rect x="48" y="66" width="3" height="3"/>
    <rect x="57" y="66" width="3" height="3"/>
    <rect x="66" y="66" width="3" height="3"/>
    <rect x="75" y="66" width="3" height="3"/>
    <rect x="84" y="66" width="3" height="3"/>
    
    <rect x="30" y="75" width="3" height="3"/>
    <rect x="36" y="75" width="3" height="3"/>
    <rect x="45" y="75" width="3" height="3"/>
    <rect x="54" y="75" width="3" height="3"/>
    <rect x="63" y="81" width="3" height="3"/>
    <rect x="72" y="78" width="3" height="3"/>
    <rect x="81" y="75" width="3" height="3"/>
    <rect x="90" y="81" width="3" height="3"/>
    
    <rect x="30" y="84" width="3" height="3"/>
    <rect x="39" y="87" width="3" height="3"/>
    <rect x="48" y="84" width="3" height="3"/>
    <rect x="57" y="90" width="3" height="3"/>
    <rect x="66" y="87" width="3" height="3"/>
    <rect x="75" y="84" width="3" height="3"/>
    <rect x="84" y="90" width="3" height="3"/>
  </g>
  
  <!-- Logo Apple no centro -->
  <circle cx="50" cy="50" r="12" fill="white"/>
  <path d="M50 42c-1.5-2-4-3-6-2 0 3 2 5 4 6-1 1-2 3-2 5 0 3 2 6 5 6 1 0 2-0.5 3-1 1 0.5 2 1 3 1 3 0 5-3 5-6 0-2-1-4-2-5 2-1 4-3 4-6-2-1-4.5 0-6 2-1-1-2-1-4 0z" fill="#000"/>
</svg>
